name analog
datacolumns 19
datarows 43
range 0.1145 0.1355
endheader
time	ground_force_vx	ground_force_vy	ground_force_vz	ground_force_px	ground_force_py	ground_force_pz	l_ground_force_vx	l_ground_force_vy	l_ground_force_vz	l_ground_force_px	l_ground_force_py	l_ground_force_pz	ground_torque_x	ground_torque_y	ground_torque_z	l_ground_torque_x	l_ground_torque_y	l_ground_torque_z
0.1145	-0.0	-0.0	-0.0	-6.834799766540527	15.39918613433838	-602.9891357421875	-0.0	-0.0	-0.0	-0.0	-0.0	-0.0	-0.0	-0.0	-0.0	-0.0	-0.0	-0.0
0.115	-0.0	-0.0	-0.0	-5.810601234436035	15.494436264038086	-603.8576049804688	-0.0	-0.0	-0.0	-0.0	-0.0	-0.0	-0.0	-0.0	-0.0	-0.0	-0.0	-0.0
0.1155	-0.0	-0.0	-0.0	-5.476404190063477	14.873578071594238	-604.7457885742188	-0.0	-0.0	-0.0	-0.0	-0.0	-0.0	-0.0	-0.0	-0.0	-0.0	-0.0	-0.0
0.116	-0.0	-0.0	-0.0	-4.7135090827941895	14.811601638793944	-602.50390625	-0.0	-0.0	-0.0	-0.0	-0.0	-0.0	-0.0	-0.0	-0.0	-0.0	-0.0	-0.0
0.1165	-0.0	-0.0	-0.0	-3.632916212081909	14.691633224487305	-602.54443359375	-0.0	-0.0	-0.0	-0.0	-0.0	-0.0	-0.0	-0.0	-0.0	-0.0	-0.0	-0.0
0.117	-0.0	-0.0	-0.0	-3.56842041015625	14.41944980621338	-602.4287109375	-0.0	-0.0	-0.0	-0.0	-0.0	-0.0	-0.0	-0.0	-0.0	-0.0	-0.0	-0.0
0.11750000000000001	-0.0	-0.0	-0.0	-3.5140395164489746	13.884808540344238	-601.9564819335938	-0.0	-0.0	-0.0	-0.0	-0.0	-0.0	-0.0	-0.0	-0.0	-0.0	-0.0	-0.0
0.11800000000000001	-0.0	-0.0	-0.0	-3.979560613632202	14.129050254821776	-602.8014526367188	-0.0	-0.0	-0.0	-0.0	-0.0	-0.0	-0.0	-0.0	-0.0	-0.0	-0.0	-0.0
0.11850000000000001	-0.0	-0.0	-0.0	-4.712460994720459	13.811638832092283	-600.2533569335938	-0.0	-0.0	-0.0	-0.0	-0.0	-0.0	-0.0	-0.0	-0.0	-0.0	-0.0	-0.0
0.11900000000000001	-0.0	-0.0	-0.0	-5.620262145996094	13.834301948547363	-601.61669921875	-0.0	-0.0	-0.0	-0.0	-0.0	-0.0	-0.0	-0.0	-0.0	-0.0	-0.0	-0.0
0.11950000000000001	-0.0	-0.0	-0.0	-5.814839839935303	13.993473052978516	-598.8652954101562	-0.0	-0.0	-0.0	-0.0	-0.0	-0.0	-0.0	-0.0	-0.0	-0.0	-0.0	-0.0
0.12	-0.0	-0.0	-0.0	-5.941925525665283	14.298537254333496	-598.4261474609375	-0.0	-0.0	-0.0	-0.0	-0.0	-0.0	-0.0	-0.0	-0.0	-0.0	-0.0	-0.0
0.1205	-0.0	-0.0	-0.0	-5.908696174621582	14.345768928527832	-598.9931640625	-0.0	-0.0	-0.0	-0.0	-0.0	-0.0	-0.0	-0.0	-0.0	-0.0	-0.0	-0.0
0.121	-0.0	-0.0	-0.0	-5.084999084472656	14.884777069091797	-596.167724609375	-0.0	-0.0	-0.0	-0.0	-0.0	-0.0	-0.0	-0.0	-0.0	-0.0	-0.0	-0.0
0.1215	-0.0	-0.0	-0.0	-4.691290855407715	15.026205062866213	-593.6224975585938	-0.0	-0.0	-0.0	-0.0	-0.0	-0.0	-0.0	-0.0	-0.0	-0.0	-0.0	-0.0
0.122	-0.0	-0.0	-0.0	-4.0499444007873535	15.205859184265137	-592.7040405273438	-0.0	-0.0	-0.0	-0.0	-0.0	-0.0	-0.0	-0.0	-0.0	-0.0	-0.0	-0.0
0.1225	-0.0	-0.0	-0.0	-3.8534255027771	15.20736312866211	-589.5979614257812	-0.0	-0.0	-0.0	-0.0	-0.0	-0.0	-0.0	-0.0	-0.0	-0.0	-0.0	-0.0
0.123	-0.0	-0.0	-0.0	-3.229200601577759	14.937962532043455	-587.479248046875	-0.0	-0.0	-0.0	-0.0	-0.0	-0.0	-0.0	-0.0	-0.0	-0.0	-0.0	-0.0
0.1235	-0.0	-0.0	-0.0	-2.587104797363281	15.134337425231934	-586.561279296875	-0.0	-0.0	-0.0	-0.0	-0.0	-0.0	-0.0	-0.0	-0.0	-0.0	-0.0	-0.0
0.124	-0.0	-0.0	-0.0	-1.6240606307983398	14.421137809753418	-582.9586181640625	-0.0	-0.0	-0.0	-0.0	-0.0	-0.0	-0.0	-0.0	-0.0	-0.0	-0.0	-0.0
0.1245	-0.0	-0.0	-0.0	-0.8393979072570801	14.189287185668944	-580.4164428710938	-0.0	-0.0	-0.0	-0.0	-0.0	-0.0	-0.0	-0.0	-0.0	-0.0	-0.0	-0.0
0.125	-0.0	-0.0	-0.0	-0.963859498500824	14.385839462280272	-578.716064453125	-0.0	-0.0	-0.0	-0.0	-0.0	-0.0	-0.0	-0.0	-0.0	-0.0	-0.0	-0.0
0.1255	-0.0	-0.0	-0.0	-1.2489471435546875	14.777029037475586	-577.2384033203125	-0.0	-0.0	-0.0	-0.0	-0.0	-0.0	-0.0	-0.0	-0.0	-0.0	-0.0	-0.0
0.126	-0.0	-0.0	-0.0	-2.01581072807312	14.116869926452637	-578.0128784179688	-0.0	-0.0	-0.0	-0.0	-0.0	-0.0	-0.0	-0.0	-0.0	-0.0	-0.0	-0.0
0.1265	-0.0	-0.0	-0.0	-1.7992284297943115	13.316485404968262	-576.0364990234375	-0.0	-0.0	-0.0	-0.0	-0.0	-0.0	-0.0	-0.0	-0.0	-0.0	-0.0	-0.0
0.127	-0.0	-0.0	-0.0	-1.6588292121887207	11.945902824401855	-577.1627807617188	-0.0	-0.0	-0.0	-0.0	-0.0	-0.0	-0.0	-0.0	-0.0	-0.0	-0.0	-0.0
0.1275	-0.0	-0.0	-0.0	-0.6607003211975098	11.107816696166992	-575.1866455078125	-0.0	-0.0	-0.0	-0.0	-0.0	-0.0	-0.0	-0.0	-0.0	-0.0	-0.0	-0.0
0.128	-0.0	-0.0	-0.0	-0.9419506192207336	9.62914752960205	-577.6708984375	-0.0	-0.0	-0.0	-0.0	-0.0	-0.0	-0.0	-0.0	-0.0	-0.0	-0.0	-0.0
0.1285	-0.0	-0.0	-0.0	-1.0670444965362549	9.00217056274414	-577.7234497070312	-0.0	-0.0	-0.0	-0.0	-0.0	-0.0	-0.0	-0.0	-0.0	-0.0	-0.0	-0.0
0.129	-0.0	-0.0	-0.0	-0.6207102537155151	8.41466236114502	-577.7376708984375	-0.0	-0.0	-0.0	-0.0	-0.0	-0.0	-0.0	-0.0	-0.0	-0.0	-0.0	-0.0
0.1295	-0.0	-0.0	-0.0	0.6000436544418335	7.742278099060059	-579.3433837890625	-0.0	-0.0	-0.0	-0.0	-0.0	-0.0	-0.0	-0.0	-0.0	-0.0	-0.0	-0.0
0.13	-0.0	-0.0	-0.0	1.852859616279602	7.576084136962891	-580.1298217773438	-0.0	-0.0	-0.0	-0.0	-0.0	-0.0	-0.0	-0.0	-0.0	-0.0	-0.0	-0.0
0.1305	-0.0	-0.0	-0.0	2.6763153076171875	6.899655342102051	-578.8619384765625	-0.0	-0.0	-0.0	-0.0	-0.0	-0.0	-0.0	-0.0	-0.0	-0.0	-0.0	-0.0
0.131	-0.0	-0.0	-0.0	3.4634597301483154	6.721477508544922	-577.2830810546875	-0.0	-0.0	-0.0	-0.0	-0.0	-0.0	-0.0	-0.0	-0.0	-0.0	-0.0	-0.0
0.1315	-0.0	-0.0	-0.0	4.014472961425781	6.63241720199585	-575.8908081054688	-0.0	-0.0	-0.0	-0.0	-0.0	-0.0	-0.0	-0.0	-0.0	-0.0	-0.0	-0.0
0.132	-0.0	-0.0	-0.0	4.470160961151123	6.789393901824951	-572.7119750976562	-0.0	-0.0	-0.0	-0.0	-0.0	-0.0	-0.0	-0.0	-0.0	-0.0	-0.0	-0.0
0.1325	-0.0	-0.0	-0.0	4.721880912780762	7.324010848999023	-569.119140625	-0.0	-0.0	-0.0	-0.0	-0.0	-0.0	-0.0	-0.0	-0.0	-0.0	-0.0	-0.0
0.133	-0.0	-0.0	-0.0	4.736818790435791	7.486953735351562	-564.8209228515625	-0.0	-0.0	-0.0	-0.0	-0.0	-0.0	-0.0	-0.0	-0.0	-0.0	-0.0	-0.0
0.1335	-0.0	-0.0	-0.0	4.512669086456299	7.858538627624512	-560.6756591796875	-0.0	-0.0	-0.0	-0.0	-0.0	-0.0	-0.0	-0.0	-0.0	-0.0	-0.0	-0.0
0.134	-0.0	-0.0	-0.0	5.233597755432129	8.207573890686035	-556.081298828125	-0.0	-0.0	-0.0	-0.0	-0.0	-0.0	-0.0	-0.0	-0.0	-0.0	-0.0	-0.0
0.1345	-0.0	-0.0	-0.0	5.5682573318481445	8.162824630737305	-551.9030151367188	-0.0	-0.0	-0.0	-0.0	-0.0	-0.0	-0.0	-0.0	-0.0	-0.0	-0.0	-0.0
0.135	-0.0	-0.0	-0.0	4.906578063964844	8.956900596618652	-547.9035034179688	-0.0	-0.0	-0.0	-0.0	-0.0	-0.0	-0.0	-0.0	-0.0	-0.0	-0.0	-0.0
0.1355	-0.0	-0.0	-0.0	4.497870445251465	7.976128101348877	-545.3673095703125	-0.0	-0.0	-0.0	-0.0	-0.0	-0.0	-0.0	-0.0	-0.0	-0.0	-0.0	-0.0
